<mxfile host="Electron" agent="Mozilla/5.0 (Windows NT 10.0; Win64; x64) AppleWebKit/537.36 (KHTML, like Gecko) draw.io/26.0.16 Chrome/132.0.6834.196 Electron/34.2.0 Safari/537.36" version="26.0.16">
  <diagram name="第 1 页" id="pSFwvPMEafr548DETsWV">
    <mxGraphModel dx="1687" dy="993" grid="1" gridSize="10" guides="1" tooltips="1" connect="1" arrows="1" fold="1" page="1" pageScale="1" pageWidth="827" pageHeight="1169" math="0" shadow="0">
      <root>
        <mxCell id="0" />
        <mxCell id="1" parent="0" />
        <mxCell id="Vb_7l0cPCY90Rmvmay_--4" value="开始" style="strokeWidth=2;html=1;shape=mxgraph.flowchart.terminator;whiteSpace=wrap;" vertex="1" parent="1">
          <mxGeometry x="390" y="190" width="100" height="60" as="geometry" />
        </mxCell>
        <mxCell id="Vb_7l0cPCY90Rmvmay_--5" value="结束" style="strokeWidth=2;html=1;shape=mxgraph.flowchart.terminator;whiteSpace=wrap;" vertex="1" parent="1">
          <mxGeometry x="390" y="1050" width="100" height="60" as="geometry" />
        </mxCell>
        <mxCell id="Vb_7l0cPCY90Rmvmay_--12" style="edgeStyle=orthogonalEdgeStyle;rounded=0;orthogonalLoop=1;jettySize=auto;html=1;entryX=0;entryY=0.5;entryDx=0;entryDy=0;" edge="1" parent="1" source="Vb_7l0cPCY90Rmvmay_--6" target="Vb_7l0cPCY90Rmvmay_--8">
          <mxGeometry relative="1" as="geometry" />
        </mxCell>
        <mxCell id="Vb_7l0cPCY90Rmvmay_--16" value="否" style="edgeLabel;html=1;align=center;verticalAlign=middle;resizable=0;points=[];" vertex="1" connectable="0" parent="Vb_7l0cPCY90Rmvmay_--12">
          <mxGeometry x="-0.3333" y="1" relative="1" as="geometry">
            <mxPoint as="offset" />
          </mxGeometry>
        </mxCell>
        <mxCell id="Vb_7l0cPCY90Rmvmay_--13" style="edgeStyle=orthogonalEdgeStyle;rounded=0;orthogonalLoop=1;jettySize=auto;html=1;entryX=0.5;entryY=0;entryDx=0;entryDy=0;" edge="1" parent="1" source="Vb_7l0cPCY90Rmvmay_--6" target="Vb_7l0cPCY90Rmvmay_--7">
          <mxGeometry relative="1" as="geometry" />
        </mxCell>
        <mxCell id="Vb_7l0cPCY90Rmvmay_--15" value="是" style="edgeLabel;html=1;align=center;verticalAlign=middle;resizable=0;points=[];" vertex="1" connectable="0" parent="Vb_7l0cPCY90Rmvmay_--13">
          <mxGeometry x="-0.1143" y="2" relative="1" as="geometry">
            <mxPoint as="offset" />
          </mxGeometry>
        </mxCell>
        <mxCell id="Vb_7l0cPCY90Rmvmay_--6" value="是否存在用户" style="strokeWidth=2;html=1;shape=mxgraph.flowchart.decision;whiteSpace=wrap;" vertex="1" parent="1">
          <mxGeometry x="390" y="300" width="100" height="100" as="geometry" />
        </mxCell>
        <mxCell id="Vb_7l0cPCY90Rmvmay_--20" style="edgeStyle=orthogonalEdgeStyle;rounded=0;orthogonalLoop=1;jettySize=auto;html=1;" edge="1" parent="1" source="Vb_7l0cPCY90Rmvmay_--7" target="Vb_7l0cPCY90Rmvmay_--17">
          <mxGeometry relative="1" as="geometry" />
        </mxCell>
        <mxCell id="Vb_7l0cPCY90Rmvmay_--7" value="用户登录" style="rounded=1;whiteSpace=wrap;html=1;absoluteArcSize=1;arcSize=14;strokeWidth=2;" vertex="1" parent="1">
          <mxGeometry x="370" y="470" width="140" height="60" as="geometry" />
        </mxCell>
        <mxCell id="Vb_7l0cPCY90Rmvmay_--14" style="edgeStyle=orthogonalEdgeStyle;rounded=0;orthogonalLoop=1;jettySize=auto;html=1;entryX=1;entryY=0.5;entryDx=0;entryDy=0;" edge="1" parent="1" source="Vb_7l0cPCY90Rmvmay_--8" target="Vb_7l0cPCY90Rmvmay_--7">
          <mxGeometry relative="1" as="geometry">
            <mxPoint x="680" y="510" as="targetPoint" />
            <Array as="points">
              <mxPoint x="680" y="500" />
            </Array>
          </mxGeometry>
        </mxCell>
        <mxCell id="Vb_7l0cPCY90Rmvmay_--8" value="用户注册" style="rounded=1;whiteSpace=wrap;html=1;absoluteArcSize=1;arcSize=14;strokeWidth=2;" vertex="1" parent="1">
          <mxGeometry x="610" y="322.5" width="140" height="55" as="geometry" />
        </mxCell>
        <mxCell id="Vb_7l0cPCY90Rmvmay_--11" style="edgeStyle=orthogonalEdgeStyle;rounded=0;orthogonalLoop=1;jettySize=auto;html=1;entryX=0.5;entryY=0;entryDx=0;entryDy=0;entryPerimeter=0;" edge="1" parent="1" source="Vb_7l0cPCY90Rmvmay_--4" target="Vb_7l0cPCY90Rmvmay_--6">
          <mxGeometry relative="1" as="geometry" />
        </mxCell>
        <mxCell id="Vb_7l0cPCY90Rmvmay_--17" value="输入用户名密码" style="rounded=1;whiteSpace=wrap;html=1;absoluteArcSize=1;arcSize=14;strokeWidth=2;" vertex="1" parent="1">
          <mxGeometry x="370" y="590" width="140" height="60" as="geometry" />
        </mxCell>
        <mxCell id="Vb_7l0cPCY90Rmvmay_--23" style="edgeStyle=orthogonalEdgeStyle;rounded=0;orthogonalLoop=1;jettySize=auto;html=1;" edge="1" parent="1" source="Vb_7l0cPCY90Rmvmay_--18" target="Vb_7l0cPCY90Rmvmay_--22">
          <mxGeometry relative="1" as="geometry" />
        </mxCell>
        <mxCell id="Vb_7l0cPCY90Rmvmay_--18" value="系统首页" style="rounded=1;whiteSpace=wrap;html=1;absoluteArcSize=1;arcSize=14;strokeWidth=2;" vertex="1" parent="1">
          <mxGeometry x="370" y="840" width="140" height="60" as="geometry" />
        </mxCell>
        <mxCell id="Vb_7l0cPCY90Rmvmay_--25" style="edgeStyle=orthogonalEdgeStyle;rounded=0;orthogonalLoop=1;jettySize=auto;html=1;entryX=0.5;entryY=0;entryDx=0;entryDy=0;" edge="1" parent="1" source="Vb_7l0cPCY90Rmvmay_--19" target="Vb_7l0cPCY90Rmvmay_--18">
          <mxGeometry relative="1" as="geometry" />
        </mxCell>
        <mxCell id="Vb_7l0cPCY90Rmvmay_--26" value="是" style="edgeLabel;html=1;align=center;verticalAlign=middle;resizable=0;points=[];" vertex="1" connectable="0" parent="Vb_7l0cPCY90Rmvmay_--25">
          <mxGeometry x="-0.4" y="-1" relative="1" as="geometry">
            <mxPoint as="offset" />
          </mxGeometry>
        </mxCell>
        <mxCell id="Vb_7l0cPCY90Rmvmay_--27" style="edgeStyle=orthogonalEdgeStyle;rounded=0;orthogonalLoop=1;jettySize=auto;html=1;entryX=1;entryY=0.5;entryDx=0;entryDy=0;" edge="1" parent="1" source="Vb_7l0cPCY90Rmvmay_--19" target="Vb_7l0cPCY90Rmvmay_--7">
          <mxGeometry relative="1" as="geometry">
            <Array as="points">
              <mxPoint x="680" y="750" />
              <mxPoint x="680" y="500" />
            </Array>
          </mxGeometry>
        </mxCell>
        <mxCell id="Vb_7l0cPCY90Rmvmay_--28" value="否" style="edgeLabel;html=1;align=center;verticalAlign=middle;resizable=0;points=[];" vertex="1" connectable="0" parent="Vb_7l0cPCY90Rmvmay_--27">
          <mxGeometry x="-0.0311" y="-2" relative="1" as="geometry">
            <mxPoint as="offset" />
          </mxGeometry>
        </mxCell>
        <mxCell id="Vb_7l0cPCY90Rmvmay_--19" value="验证用户信息" style="strokeWidth=2;html=1;shape=mxgraph.flowchart.decision;whiteSpace=wrap;" vertex="1" parent="1">
          <mxGeometry x="390" y="700" width="100" height="100" as="geometry" />
        </mxCell>
        <mxCell id="Vb_7l0cPCY90Rmvmay_--21" style="edgeStyle=orthogonalEdgeStyle;rounded=0;orthogonalLoop=1;jettySize=auto;html=1;entryX=0.5;entryY=0;entryDx=0;entryDy=0;entryPerimeter=0;" edge="1" parent="1" source="Vb_7l0cPCY90Rmvmay_--17" target="Vb_7l0cPCY90Rmvmay_--19">
          <mxGeometry relative="1" as="geometry" />
        </mxCell>
        <mxCell id="Vb_7l0cPCY90Rmvmay_--24" style="edgeStyle=orthogonalEdgeStyle;rounded=0;orthogonalLoop=1;jettySize=auto;html=1;" edge="1" parent="1" source="Vb_7l0cPCY90Rmvmay_--22" target="Vb_7l0cPCY90Rmvmay_--5">
          <mxGeometry relative="1" as="geometry" />
        </mxCell>
        <mxCell id="Vb_7l0cPCY90Rmvmay_--22" value="功能处理" style="rounded=1;whiteSpace=wrap;html=1;absoluteArcSize=1;arcSize=14;strokeWidth=2;" vertex="1" parent="1">
          <mxGeometry x="370" y="940" width="140" height="60" as="geometry" />
        </mxCell>
      </root>
    </mxGraphModel>
  </diagram>
</mxfile>
